HIERARCHY
ROOT mixamorig:Hips
{
	OFFSET -0.000007 99.791939 0.000048
	CHANNELS 6 Xposition Yposition Zposition Xrotation Yrotation Zrotation
	JOINT mixamorig:Spine
	{
		OFFSET -0.000008 9.923462 -1.227335
		CHANNELS 3 Xrotation Yrotation Zrotation
		JOINT mixamorig:Spine1
		{
			OFFSET -0.001162 11.645439 -1.422341
			CHANNELS 3 Xrotation Yrotation Zrotation
			JOINT mixamorig:Spine2
			{
				OFFSET -0.001082 13.360199 -1.626459
				CHANNELS 3 Xrotation Yrotation Zrotation
				JOINT mixamorig:Neck
				{
					OFFSET -0.001294 15.032486 0.792904
					CHANNELS 3 Xrotation Yrotation Zrotation
					JOINT mixamorig:Head
					{
						OFFSET -0.000902 10.321838 3.142429
						CHANNELS 3 Xrotation Yrotation Zrotation
						JOINT mixamorig:HeadTop_End
						{
							OFFSET -0.001464 18.474670 6.636400
							CHANNELS 3 Xrotation Yrotation Zrotation
							End Site
							{
								OFFSET -0.001724 19.630463 0.000000
							}
						}
					}
				}
				JOINT mixamorig:LeftShoulder
				{
					OFFSET 6.105025 9.110947 0.705547
					CHANNELS 3 Xrotation Yrotation Zrotation
					JOINT mixamorig:LeftArm
					{
						OFFSET 12.655060 -0.264816 -2.600928
						CHANNELS 3 Xrotation Yrotation Zrotation
						JOINT mixamorig:LeftForeArm
						{
							OFFSET 27.404680 0.002457 -0.000007
							CHANNELS 3 Xrotation Yrotation Zrotation
							JOINT mixamorig:LeftHand
							{
								OFFSET 27.614456 0.002457 0.000007
								CHANNELS 3 Xrotation Yrotation Zrotation
								JOINT mixamorig:LeftHandThumb1
								{
									OFFSET 3.789009 -2.166824 3.002973
									CHANNELS 3 Xrotation Yrotation Zrotation
									JOINT mixamorig:LeftHandThumb2
									{
										OFFSET 3.675636 -2.121704 2.122010
										CHANNELS 3 Xrotation Yrotation Zrotation
										JOINT mixamorig:LeftHandThumb3
										{
											OFFSET 3.394531 -1.959473 1.959746
											CHANNELS 3 Xrotation Yrotation Zrotation
											JOINT mixamorig:LeftHandThumb4
											{
												OFFSET 2.679504 -1.546753 1.546951
												CHANNELS 3 Xrotation Yrotation Zrotation
												End Site
												{
													OFFSET 2.400604 -1.530380 1.964751
												}
											}
										}
									}
								}
								JOINT mixamorig:LeftHandIndex1
								{
									OFFSET 12.266647 -0.230743 2.822040
									CHANNELS 3 Xrotation Yrotation Zrotation
									JOINT mixamorig:LeftHandIndex2
									{
										OFFSET 3.891968 0.000336 0.000037
										CHANNELS 3 Xrotation Yrotation Zrotation
										JOINT mixamorig:LeftHandIndex3
										{
											OFFSET 3.415161 0.000305 -0.000010
											CHANNELS 3 Xrotation Yrotation Zrotation
											JOINT mixamorig:LeftHandIndex4
											{
												OFFSET 3.077995 0.000275 -0.000009
												CHANNELS 3 Xrotation Yrotation Zrotation
												End Site
												{
													OFFSET 3.077988 0.000259 0.000131
												}
											}
										}
									}
								}
								JOINT mixamorig:LeftHandMiddle1
								{
									OFFSET 12.775536 0.001129 0.000014
									CHANNELS 3 Xrotation Yrotation Zrotation
									JOINT mixamorig:LeftHandMiddle2
									{
										OFFSET 3.613968 0.000320 0.000000
										CHANNELS 3 Xrotation Yrotation Zrotation
										JOINT mixamorig:LeftHandMiddle3
										{
											OFFSET 3.459763 0.000305 -0.000028
											CHANNELS 3 Xrotation Yrotation Zrotation
											JOINT mixamorig:LeftHandMiddle4
											{
												OFFSET 3.680191 0.000320 0.000031
												CHANNELS 3 Xrotation Yrotation Zrotation
												End Site
												{
													OFFSET 3.680191 0.000351 -0.004814
												}
											}
										}
									}
								}
								JOINT mixamorig:LeftHandRing1
								{
									OFFSET 12.147018 0.011063 -2.216636
									CHANNELS 3 Xrotation Yrotation Zrotation
									JOINT mixamorig:LeftHandRing2
									{
										OFFSET 3.601181 0.000320 0.000033
										CHANNELS 3 Xrotation Yrotation Zrotation
										JOINT mixamorig:LeftHandRing3
										{
											OFFSET 3.307320 0.000305 -0.000023
											CHANNELS 3 Xrotation Yrotation Zrotation
											JOINT mixamorig:LeftHandRing4
											{
												OFFSET 3.660118 0.000320 0.000000
												CHANNELS 3 Xrotation Yrotation Zrotation
												End Site
												{
													OFFSET 3.660103 0.000229 0.005616
												}
											}
										}
									}
								}
								JOINT mixamorig:LeftHandPinky1
								{
									OFFSET 10.908218 -0.225174 -4.725837
									CHANNELS 3 Xrotation Yrotation Zrotation
									JOINT mixamorig:LeftHandPinky2
									{
										OFFSET 4.136658 0.000351 0.001166
										CHANNELS 3 Xrotation Yrotation Zrotation
										JOINT mixamorig:LeftHandPinky3
										{
											OFFSET 2.594826 0.000244 -0.001180
											CHANNELS 3 Xrotation Yrotation Zrotation
											JOINT mixamorig:LeftHandPinky4
											{
												OFFSET 2.923874 0.000244 0.000018
												CHANNELS 3 Xrotation Yrotation Zrotation
												End Site
												{
													OFFSET 2.923851 0.000275 -0.003346
												}
											}
										}
									}
								}
							}
						}
					}
				}
				JOINT mixamorig:RightShoulder
				{
					OFFSET -6.106495 9.109970 0.705565
					CHANNELS 3 Xrotation Yrotation Zrotation
					JOINT mixamorig:RightArm
					{
						OFFSET -12.655020 -0.267136 -2.600890
						CHANNELS 3 Xrotation Yrotation Zrotation
						JOINT mixamorig:RightForeArm
						{
							OFFSET -27.404675 -0.002365 0.000019
							CHANNELS 3 Xrotation Yrotation Zrotation
							JOINT mixamorig:RightHand
							{
								OFFSET -27.614464 -0.002396 0.000031
								CHANNELS 3 Xrotation Yrotation Zrotation
								JOINT mixamorig:RightHandThumb1
								{
									OFFSET -3.788620 -2.167480 3.002977
									CHANNELS 3 Xrotation Yrotation Zrotation
									JOINT mixamorig:RightHandThumb2
									{
										OFFSET -3.675247 -2.122314 2.122009
										CHANNELS 3 Xrotation Yrotation Zrotation
										JOINT mixamorig:RightHandThumb3
										{
											OFFSET -3.394188 -1.960129 1.959755
											CHANNELS 3 Xrotation Yrotation Zrotation
											JOINT mixamorig:RightHandThumb4
											{
												OFFSET -2.679230 -1.547195 1.546953
												CHANNELS 3 Xrotation Yrotation Zrotation
												End Site
												{
													OFFSET -2.398781 -1.531693 1.965949
												}
											}
										}
									}
								}
								JOINT mixamorig:RightHandIndex1
								{
									OFFSET -12.266594 -0.232895 2.822051
									CHANNELS 3 Xrotation Yrotation Zrotation
									JOINT mixamorig:RightHandIndex2
									{
										OFFSET -3.891968 -0.000336 0.000040
										CHANNELS 3 Xrotation Yrotation Zrotation
										JOINT mixamorig:RightHandIndex3
										{
											OFFSET -3.415161 -0.000305 -0.000006
											CHANNELS 3 Xrotation Yrotation Zrotation
											JOINT mixamorig:RightHandIndex4
											{
												OFFSET -3.077988 -0.000275 0.000006
												CHANNELS 3 Xrotation Yrotation Zrotation
												End Site
												{
													OFFSET -3.077980 0.000229 -0.008454
												}
											}
										}
									}
								}
								JOINT mixamorig:RightHandMiddle1
								{
									OFFSET -12.775528 -0.001114 0.000025
									CHANNELS 3 Xrotation Yrotation Zrotation
									JOINT mixamorig:RightHandMiddle2
									{
										OFFSET -3.613968 -0.000320 0.000005
										CHANNELS 3 Xrotation Yrotation Zrotation
										JOINT mixamorig:RightHandMiddle3
										{
											OFFSET -3.459763 -0.000305 -0.000025
											CHANNELS 3 Xrotation Yrotation Zrotation
											JOINT mixamorig:RightHandMiddle4
											{
												OFFSET -3.680191 -0.000320 0.000034
												CHANNELS 3 Xrotation Yrotation Zrotation
												End Site
												{
													OFFSET -3.680168 -0.000031 0.012581
												}
											}
										}
									}
								}
								JOINT mixamorig:RightHandRing1
								{
									OFFSET -12.147003 0.008942 -2.216624
									CHANNELS 3 Xrotation Yrotation Zrotation
									JOINT mixamorig:RightHandRing2
									{
										OFFSET -3.601196 -0.000320 0.000037
										CHANNELS 3 Xrotation Yrotation Zrotation
										JOINT mixamorig:RightHandRing3
										{
											OFFSET -3.307312 -0.000290 -0.000019
											CHANNELS 3 Xrotation Yrotation Zrotation
											JOINT mixamorig:RightHandRing4
											{
												OFFSET -3.660118 -0.000320 0.000002
												CHANNELS 3 Xrotation Yrotation Zrotation
												End Site
												{
													OFFSET -3.660110 0.000107 0.002180
												}
											}
										}
									}
								}
								JOINT mixamorig:RightHandPinky1
								{
									OFFSET -10.908173 -0.227081 -4.725826
									CHANNELS 3 Xrotation Yrotation Zrotation
									JOINT mixamorig:RightHandPinky2
									{
										OFFSET -4.136642 -0.000366 0.000029
										CHANNELS 3 Xrotation Yrotation Zrotation
										JOINT mixamorig:RightHandPinky3
										{
											OFFSET -2.594841 -0.000229 -0.000036
											CHANNELS 3 Xrotation Yrotation Zrotation
											JOINT mixamorig:RightHandPinky4
											{
												OFFSET -2.923874 -0.000259 0.000021
												CHANNELS 3 Xrotation Yrotation Zrotation
												End Site
												{
													OFFSET -2.923820 0.000336 -0.012876
												}
											}
										}
									}
								}
							}
						}
					}
				}
			}
		}
	}
	JOINT mixamorig:LeftUpLeg
	{
		OFFSET 9.124458 -6.656387 -0.055378
		CHANNELS 3 Xrotation Yrotation Zrotation
		JOINT mixamorig:LeftLeg
		{
			OFFSET 0.244681 -40.595421 -0.515619
			CHANNELS 3 Xrotation Yrotation Zrotation
			JOINT mixamorig:LeftFoot
			{
				OFFSET -0.244669 -42.047928 -2.059156
				CHANNELS 3 Xrotation Yrotation Zrotation
				JOINT mixamorig:LeftToeBase
				{
					OFFSET 0.373535 -7.208548 13.966561
					CHANNELS 3 Xrotation Yrotation Zrotation
					JOINT mixamorig:LeftToe_End
					{
						OFFSET -0.142059 -0.175224 9.997455
						CHANNELS 3 Xrotation Yrotation Zrotation
						End Site
						{
							OFFSET -0.142060 -0.175223 9.997459
						}
					}
				}
			}
		}
	}
	JOINT mixamorig:RightUpLeg
	{
		OFFSET -9.124448 -6.656403 -0.055378
		CHANNELS 3 Xrotation Yrotation Zrotation
		JOINT mixamorig:RightLeg
		{
			OFFSET -0.244680 -40.595459 -0.514290
			CHANNELS 3 Xrotation Yrotation Zrotation
			JOINT mixamorig:RightFoot
			{
				OFFSET 0.244670 -42.047859 -2.060535
				CHANNELS 3 Xrotation Yrotation Zrotation
				JOINT mixamorig:RightToeBase
				{
					OFFSET -0.373535 -7.208539 13.966558
					CHANNELS 3 Xrotation Yrotation Zrotation
					JOINT mixamorig:RightToe_End
					{
						OFFSET 0.141798 -0.175009 9.997463
						CHANNELS 3 Xrotation Yrotation Zrotation
						End Site
						{
							OFFSET 0.141798 -0.175009 9.997467
						}
					}
				}
			}
		}
	}
}
MOTION
Frames: 4
Frame Time: 0.033333
0.096653 98.301544 0.377827 2.565258 -5.707379 -2.399632 2.768272 2.435456 0.680519 1.935026 0.329345 -1.918868 1.945523 0.315064 -1.914590 -0.977794 -0.397239 3.479581 1.341757 2.928915 -0.631879 0.000001 -0.000000 -0.000000 0.690597 -3.225625 10.860679 50.425299 -30.291442 -36.786733 0.015258 -71.522995 0.011008 29.804227 1.770572 0.882574 -1.628065 8.967941 6.932383 4.378450 13.245593 1.151177 -0.579590 1.574938 2.538732 0.000003 0.000001 0.000001 0.204790 1.670805 -13.982248 0.198444 1.644423 -13.767826 0.195598 1.633587 -13.669213 0.000001 0.000000 0.000000 0.253610 1.855737 -15.573659 0.353060 2.181230 -18.397442 0.369505 2.230026 -18.824597 0.000000 0.000000 0.000002 0.453851 2.463467 -20.880786 0.632717 2.888105 -24.718805 0.665293 2.958719 -25.357584 -0.000001 0.000001 0.000007 3.072299 7.047346 -30.609288 0.976918 -0.557235 -31.314597 0.972510 3.559650 -30.773779 -0.000001 0.000001 -0.000000 2.217222 6.978605 -6.564578 53.081809 38.484653 30.878828 -0.013316 69.497270 0.009227 19.510481 -5.653950 -1.332557 -2.029284 -12.017296 -7.916179 5.397379 -17.106431 -0.804700 -1.273776 0.137197 -2.094872 -0.000001 0.000001 -0.000001 0.346375 -2.170643 18.116587 0.370187 -2.241452 18.738592 0.383811 -2.281676 19.083654 0.000000 0.000000 -0.000001 0.264242 -1.901621 15.809723 0.390079 -2.299707 19.240489 0.427960 -2.405381 20.163168 0.000000 -0.000000 -0.000000 0.311618 -2.061610 17.175469 0.455422 -2.478313 20.810907 0.497842 -2.587963 21.770589 -0.000000 0.000000 -0.000003 0.531097 -2.669324 22.489562 0.552027 -2.718825 22.944644 0.568789 -2.759226 23.285208 0.000000 0.000000 0.000002 -8.118393 4.852445 12.272409 13.533089 9.396215 0.616444 -3.554808 15.228035 -11.324856 -0.647298 -0.000005 -0.000001 -0.000000 -0.000001 0.000000 -8.004785 -10.259609 -4.736257 9.808708 -4.597605 -2.668608 -3.133939 -1.855504 8.531020 -1.015018 -0.000006 0.000012 -0.000000 -0.000001 -0.000000 
0.240522 98.322922 0.487067 2.428975 -5.552540 -2.458085 2.430031 2.133383 0.486033 2.315644 0.293475 -1.794606 2.325756 0.277660 -1.791874 -1.637898 -0.438363 3.987487 1.486660 3.378181 -0.201547 0.000000 0.000000 0.000000 0.936350 -4.535509 12.294878 48.832414 -27.337118 -40.268845 0.018212 -74.380992 0.013839 33.644829 4.832271 0.632168 -1.628066 8.967938 6.932382 4.378449 13.245595 1.151180 -0.579589 1.574940 2.538732 0.000002 0.000003 0.000001 0.201304 1.656670 -13.861559 0.199595 1.649185 -13.808482 0.195825 1.634528 -13.677244 -0.000000 -0.000001 -0.000001 0.251680 1.848793 -15.513803 0.353344 2.182063 -18.404660 0.370075 2.231691 -18.839327 0.000000 -0.000001 0.000003 0.453342 2.462104 -20.868697 0.632607 2.887876 -24.716737 0.666405 2.961048 -25.379111 -0.000000 -0.000000 0.000002 3.076299 7.049506 -30.641820 0.975815 -0.559066 -31.296924 0.974694 3.563318 -30.809187 0.000000 0.000001 -0.000001 2.215072 6.953933 -6.493616 52.905088 38.641543 31.095140 -0.012333 68.049277 0.008330 18.211960 -7.019219 -2.169275 -2.029283 -12.017299 -7.916182 5.397381 -17.106434 -0.804700 -1.273776 0.137197 -2.094870 0.000001 0.000003 0.000000 0.350802 -2.184064 18.232920 0.368892 -2.237638 18.705421 0.383164 -2.279800 19.067404 0.000000 -0.000000 -0.000001 0.265875 -1.907366 15.858897 0.390093 -2.299748 19.240938 0.427108 -2.403083 20.143160 0.000000 0.000000 -0.000002 0.311358 -2.060719 17.168001 0.455952 -2.479712 20.823450 0.496646 -2.584986 21.744221 0.000000 0.000000 -0.000003 0.528084 -2.662002 22.424529 0.553897 -2.723254 22.984182 0.566683 -2.754333 23.241360 0.000001 -0.000001 0.000001 -8.127055 5.927434 11.890991 13.303457 8.804497 1.645216 -3.519564 14.478212 -11.679397 -0.270130 -0.000007 0.000001 -0.000000 -0.000004 0.000000 -8.339245 -10.205693 -4.871051 10.944230 -4.488280 -2.439787 -3.742927 -2.249151 7.501748 -1.480017 -0.000011 0.000013 -0.000000 -0.000000 -0.000000 
0.398260 98.292000 0.611926 2.285646 -5.290520 -2.420635 1.971987 1.824294 0.191045 2.747978 0.257139 -1.597849 2.757757 0.240651 -1.596919 -2.349520 -0.503124 4.442055 1.561890 3.653057 0.357324 0.000000 0.000000 0.000000 1.204149 -5.682701 13.559591 47.037430 -25.014248 -44.029947 0.020141 -75.827141 0.015707 36.450503 7.722448 -0.437905 -1.628065 8.967939 6.932382 4.378448 13.245593 1.151179 -0.579591 1.574937 2.538732 0.000006 -0.000000 0.000008 0.181878 1.575932 -13.172933 0.199526 1.648879 -13.805732 0.196433 1.636994 -13.698393 -0.000001 -0.000001 0.000001 0.239994 1.806206 -15.147512 0.350582 2.173750 -18.332057 0.370112 2.231842 -18.840628 0.000000 0.000000 0.000004 0.447990 2.448052 -20.743979 0.631140 2.884679 -24.687357 0.666745 2.961789 -25.385742 -0.000000 -0.000002 -0.000002 3.086795 7.055134 -30.727406 0.975234 -0.560029 -31.287529 0.975441 3.564568 -30.821345 0.000001 -0.000000 0.000000 2.157269 6.690251 -6.259622 51.953294 39.381542 31.798260 -0.010803 65.299279 0.006935 15.770313 -9.356673 -3.264327 -2.029284 -12.017296 -7.916181 5.397380 -17.106432 -0.804702 -1.273773 0.137197 -2.094874 0.000001 0.000000 -0.000003 0.338935 -2.147798 17.919187 0.369781 -2.240205 18.727670 0.382027 -2.276515 19.038797 -0.000000 0.000000 -0.000003 0.259095 -1.883355 15.653892 0.389207 -2.297246 19.219053 0.426082 -2.400281 20.118507 0.000000 0.000000 -0.000004 0.306252 -2.044114 17.025211 0.455431 -2.478364 20.811335 0.495772 -2.582794 21.724803 0.000000 -0.000000 0.000000 0.522770 -2.649126 22.310009 0.554686 -2.725074 23.000409 0.565828 -2.752345 23.223587 0.000002 0.000001 -0.000002 -8.468540 7.530612 12.191015 13.723103 7.323149 1.335684 -3.989251 13.826308 -11.297421 -0.141359 0.000004 0.000001 -0.000000 -0.000001 0.000000 -8.594982 -10.465678 -5.145648 11.917707 -4.219277 -2.329184 -4.296132 -2.576450 7.067101 -1.741782 -0.000016 0.000015 -0.000000 -0.000000 0.000000 
0.565188 98.190636 0.755361 2.139087 -5.103337 -2.187020 1.263524 1.575759 -0.454965 3.188329 0.228345 -1.226771 3.198283 0.214968 -1.227739 -2.967365 -0.620106 4.535676 1.435417 3.197803 1.173323 0.000001 0.000000 0.000000 1.169446 -5.519697 13.386869 42.818104 -26.114895 -47.643261 0.014122 -70.174217 0.009911 37.003714 10.192727 -1.858535 -1.628065 8.967939 6.932379 4.378449 13.245595 1.151182 -0.579589 1.574938 2.538730 0.000003 0.000002 0.000004 0.160378 1.481068 -12.366278 0.197790 1.641811 -13.745511 0.197022 1.639395 -13.718736 0.000000 0.000000 -0.000002 0.226534 1.755694 -14.714000 0.346362 2.161031 -18.220846 0.369712 2.230614 -18.829768 0.000001 0.000000 0.000002 0.441340 2.430481 -20.587906 0.629355 2.880793 -24.652005 0.666488 2.961248 -25.380921 0.000000 0.000000 -0.000000 3.096891 7.060552 -30.809720 0.976231 -0.558371 -31.303508 0.975088 3.563972 -30.815519 -0.000002 -0.000000 0.000002 1.930451 5.636462 -5.295894 47.883700 42.357155 34.286484 -0.007956 58.052660 0.004411 9.431731 -14.866016 -5.192166 -2.029281 -12.017298 -7.916182 5.397382 -17.106432 -0.804703 -1.273772 0.137197 -2.094871 -0.000001 0.000000 0.000000 0.320626 -2.090377 17.424004 0.372037 -2.246893 18.785804 0.381367 -2.274592 19.022178 0.000001 -0.000000 0.000003 0.249477 -1.848752 15.358790 0.387973 -2.293694 19.188271 0.425594 -2.398939 20.106865 -0.000000 0.000001 -0.000004 0.300518 -2.025352 16.864010 0.453972 -2.474503 20.777396 0.495654 -2.582485 21.722081 0.000002 0.000000 0.000001 0.519696 -2.641648 22.243450 0.553139 -2.721447 22.967990 0.566487 -2.753889 23.237437 -0.000001 0.000000 0.000000 -9.038551 9.477302 12.965808 14.656806 4.826872 -0.154652 -4.879659 13.765941 -10.197230 -0.188411 -0.000002 -0.000001 -0.000000 -0.000000 -0.000000 -9.107659 -10.681026 -5.742536 13.307465 -3.808485 -2.210411 -5.049864 -2.929505 7.056351 -1.856368 -0.000019 0.000016 -0.000000 0.000001 0.000000 
